<svg width="80" height="80" viewBox="0 0 80 80" fill="none" xmlns="http://www.w3.org/2000/svg">
<rect width="80" height="80" fill="#292929"/>
<g clip-path="url(#clip0_702_6351)">
<path d="M19.916 11.9985C29.0796 11.8567 29.0796 11.8567 32.9864 11.8259C35.6522 11.8048 38.3176 11.7798 40.983 11.7318C43.1321 11.6934 45.2808 11.6722 47.4302 11.6631C48.2501 11.6565 49.0699 11.6438 49.8896 11.6247C51.0386 11.599 52.1857 11.5955 53.3349 11.5971C53.6737 11.5844 54.0124 11.5717 54.3614 11.5586C55.3158 11.5733 55.3158 11.5733 56.9886 11.9985C57.9513 13.0755 58.5712 14.2386 59.1953 15.5345C59.5199 16.0878 59.5199 16.0878 59.851 16.6523C60.4159 17.6599 60.9792 18.6683 61.5399 19.6783C61.7405 20.0344 61.941 20.3905 62.1476 20.7574C62.3368 21.0975 62.526 21.4377 62.7209 21.7882C62.8917 22.0943 63.0626 22.4005 63.2386 22.716C63.6087 23.4905 63.6087 23.4905 63.6087 24.3745C55.1615 24.3745 46.7142 24.3745 38.011 24.3745C38.011 31.5217 38.011 38.6688 38.011 46.0325C44.7105 46.0325 51.4101 46.0325 58.3126 46.0325C57.2931 44.1364 56.2736 42.2402 55.2232 40.2865C55.2232 39.9948 55.2232 39.7031 55.2232 39.4025C50.1258 39.4025 45.0283 39.4025 39.7763 39.4025C39.7763 38.3815 39.7763 37.3605 39.7763 36.3085C45.4564 36.3085 51.1364 36.3085 56.9886 36.3085C58.0081 38.2594 59.0276 40.2103 60.078 42.2203C60.4006 42.8353 60.7231 43.4503 61.0555 44.0839C61.3064 44.5663 61.5573 45.0487 61.8158 45.5457C62.0746 46.041 62.3335 46.5363 62.6002 47.0467C63.1674 48.2425 63.1674 48.2425 63.1674 49.1265C54.8658 49.1265 46.5641 49.1265 38.011 49.1265C38.011 54.9609 38.011 60.7953 38.011 66.8065C34.0786 66.8065 30.1463 66.8065 26.0948 66.8065C26.0948 65.9314 26.0948 65.0562 26.0948 64.1545C29.0076 64.1545 31.9205 64.1545 34.9216 64.1545C34.9216 59.0494 34.9216 53.9443 34.9216 48.6845C30.9892 48.6845 27.0569 48.6845 23.0054 48.6845C23.0054 54.6648 23.0054 60.6451 23.0054 66.8065C21.9859 66.8065 20.9664 66.8065 19.916 66.8065C19.916 59.9511 19.916 53.0957 19.916 46.0325C24.8679 46.0325 29.8197 46.0325 34.9216 46.0325C34.9216 37.8644 34.9216 29.6962 34.9216 21.2805C42.6406 21.1347 50.3597 20.9888 58.3126 20.8385C57.2931 18.9424 56.2736 17.0462 55.2232 15.0925C44.5914 14.9467 33.9595 14.8008 23.0054 14.6505C23.0054 21.7977 23.0054 28.9448 23.0054 36.3085C26.3552 36.3085 29.7049 36.3085 33.1562 36.3085C33.1562 37.3296 33.1562 38.3506 33.1562 39.4025C28.787 39.4025 24.4177 39.4025 19.916 39.4025C19.916 30.3592 19.916 21.3159 19.916 11.9985Z" fill="white"/>
<path d="M22.564 48.2461C26.7876 48.2461 31.0112 48.2461 35.3628 48.2461C35.5085 48.5378 35.6541 48.8295 35.8042 49.1301C36.3867 48.9842 36.9693 48.8384 37.5695 48.6881C37.5695 54.6684 37.5695 60.6486 37.5695 66.8101C33.7828 66.8101 29.9961 66.8101 26.0947 66.8101C26.0947 65.9349 26.0947 65.0598 26.0947 64.1581C29.0075 64.1581 31.9204 64.1581 34.9215 64.1581C34.9215 59.053 34.9215 53.9479 34.9215 48.6881C30.8435 48.6881 26.7655 48.6881 22.564 48.6881C22.564 48.5422 22.564 48.3964 22.564 48.2461Z" fill="white"/>
<path d="M39.7764 36.3086C45.4564 36.3086 51.1365 36.3086 56.9886 36.3086C55.397 37.3713 54.1919 37.3454 52.3494 37.3756C51.8673 37.3884 51.8673 37.3884 51.3755 37.4015C50.3503 37.4279 49.3251 37.4485 48.2998 37.4688C47.6041 37.4857 46.9085 37.503 46.2129 37.5206C44.5088 37.5631 42.8047 37.6002 41.1004 37.6346C41.1004 37.7805 41.1004 37.9263 41.1004 38.0766C48.0912 38.2954 48.0912 38.2954 55.2233 38.5186C55.2233 38.9562 55.2233 39.3938 55.2233 39.8446C50.1258 39.6987 45.0283 39.5529 39.7764 39.4026C39.7764 38.3816 39.7764 37.3606 39.7764 36.3086Z" fill="white"/>
<path d="M57.43 37.1956C57.8382 39.28 57.9726 40.5869 56.9887 42.4996C55.2233 40.4553 55.2233 40.4553 55.2233 38.9636C50.4171 38.8177 45.611 38.6719 40.6591 38.5216C40.5135 38.084 40.3678 37.6464 40.2178 37.1956C42.3852 37.1214 44.5528 37.0504 46.7204 36.9825C47.4576 36.9589 48.1948 36.9344 48.9319 36.9091C49.9923 36.8727 51.0527 36.8396 52.1133 36.8071C52.442 36.7951 52.7708 36.7832 53.1095 36.7709C54.6209 36.7275 55.987 36.7056 57.43 37.1956Z" fill="white"/>
</g>
<defs>
<clipPath id="clip0_702_6351">
<rect width="63.1117" height="55.25" fill="white" transform="translate(8 12)"/>
</clipPath>
</defs>
</svg>
