<svg width="533" height="383" viewBox="0 0 533 383" fill="none" xmlns="http://www.w3.org/2000/svg">
<path d="M91.8672 318.93H67.4531V329.906H89.9141V341H67.4531V366H52.9219V307.836H91.8672V318.93ZM152.375 336.938C152.375 346.339 149.862 353.734 144.836 359.125C139.81 364.516 132.922 367.211 124.172 367.211C115.396 367.211 108.508 364.49 103.508 359.047C98.5078 353.578 96.0078 346.208 96.0078 336.938C96.0078 327.589 98.5078 320.206 103.508 314.789C108.508 309.346 115.396 306.625 124.172 306.625C132.922 306.625 139.81 309.333 144.836 314.75C149.862 320.141 152.375 327.536 152.375 336.938ZM137.297 336.898C137.297 333.435 136.932 330.492 136.203 328.07C135.5 325.622 134.549 323.617 133.352 322.055C132.102 320.466 130.682 319.333 129.094 318.656C127.531 317.953 125.904 317.602 124.211 317.602C122.414 317.602 120.786 317.927 119.328 318.578C117.87 319.203 116.464 320.336 115.109 321.977C113.911 323.487 112.935 325.492 112.18 327.992C111.451 330.492 111.086 333.474 111.086 336.938C111.086 340.505 111.438 343.474 112.141 345.844C112.844 348.188 113.807 350.154 115.031 351.742C116.281 353.357 117.701 354.516 119.289 355.219C120.878 355.896 122.518 356.234 124.211 356.234C125.93 356.234 127.596 355.87 129.211 355.141C130.826 354.385 132.219 353.227 133.391 351.664C134.641 349.971 135.604 348.005 136.281 345.766C136.958 343.5 137.297 340.544 137.297 336.898ZM184.562 367.211C176.75 367.211 170.734 365.323 166.516 361.547C162.323 357.771 160.227 352.25 160.227 344.984V307.836H174.836V344.125C174.836 348.161 175.591 351.169 177.102 353.148C178.638 355.128 181.125 356.117 184.562 356.117C187.922 356.117 190.383 355.167 191.945 353.266C193.534 351.365 194.328 348.318 194.328 344.125V307.836H208.938V344.945C208.938 352.107 206.88 357.615 202.766 361.469C198.677 365.297 192.609 367.211 184.562 367.211ZM273.977 366H256.164L239.953 344.672H234.719V366H220.188V307.836H243.586C246.815 307.836 249.628 308.044 252.023 308.461C254.419 308.852 256.633 309.685 258.664 310.961C260.747 312.289 262.401 313.982 263.625 316.039C264.849 318.07 265.461 320.661 265.461 323.812C265.461 328.266 264.458 331.885 262.453 334.672C260.448 337.432 257.766 339.633 254.406 341.273L273.977 366ZM250.461 325.648C250.461 324.19 250.174 322.94 249.602 321.898C249.055 320.831 248.13 320.01 246.828 319.438C245.917 319.047 244.901 318.799 243.781 318.695C242.661 318.591 241.268 318.539 239.602 318.539H234.719V334.203H238.898C240.93 334.203 242.648 334.086 244.055 333.852C245.487 333.591 246.698 333.057 247.688 332.25C248.625 331.521 249.315 330.648 249.758 329.633C250.227 328.617 250.461 327.289 250.461 325.648ZM296.281 367.055C291.828 367.055 287.909 366.625 284.523 365.766C281.164 364.906 278.039 363.839 275.148 362.562V348.734H276.477C279.393 351.208 282.609 353.109 286.125 354.438C289.641 355.766 293.052 356.43 296.359 356.43C297.193 356.43 298.286 356.339 299.641 356.156C301.021 355.974 302.128 355.688 302.961 355.297C303.977 354.854 304.836 354.242 305.539 353.461C306.242 352.654 306.594 351.599 306.594 350.297C306.594 348.839 306.021 347.654 304.875 346.742C303.729 345.831 302.362 345.167 300.773 344.75C298.794 344.229 296.672 343.734 294.406 343.266C292.167 342.797 290.07 342.224 288.117 341.547C283.612 339.958 280.383 337.823 278.43 335.141C276.477 332.458 275.5 329.099 275.5 325.062C275.5 319.62 277.805 315.219 282.414 311.859C287.023 308.474 292.779 306.781 299.68 306.781C303.143 306.781 306.581 307.133 309.992 307.836C313.43 308.539 316.503 309.49 319.211 310.688V323.969H317.922C315.76 322.12 313.117 320.557 309.992 319.281C306.893 318.005 303.703 317.367 300.422 317.367C299.146 317.367 298 317.458 296.984 317.641C295.969 317.823 294.901 318.174 293.781 318.695C292.87 319.112 292.076 319.737 291.398 320.57C290.747 321.378 290.422 322.289 290.422 323.305C290.422 324.789 290.943 325.974 291.984 326.859C293.052 327.719 295.096 328.5 298.117 329.203C300.07 329.646 301.945 330.076 303.742 330.492C305.565 330.909 307.505 331.482 309.562 332.211C313.599 333.669 316.594 335.635 318.547 338.109C320.526 340.557 321.516 343.799 321.516 347.836C321.516 353.617 319.237 358.266 314.68 361.781C310.148 365.297 304.016 367.055 296.281 367.055ZM354.094 367.133C345.37 367.133 338.443 364.503 333.312 359.242C328.182 353.956 325.617 346.534 325.617 336.977C325.617 327.758 328.182 320.414 333.312 314.945C338.469 309.451 345.409 306.703 354.133 306.703C356.451 306.703 358.534 306.833 360.383 307.094C362.232 307.354 364.003 307.719 365.695 308.188C367.023 308.578 368.469 309.112 370.031 309.789C371.594 310.466 372.857 311.052 373.82 311.547V325.414H372.336C371.633 324.789 370.747 324.047 369.68 323.188C368.612 322.302 367.401 321.443 366.047 320.609C364.693 319.776 363.195 319.073 361.555 318.5C359.94 317.901 358.247 317.602 356.477 317.602C354.367 317.602 352.427 317.94 350.656 318.617C348.911 319.268 347.245 320.414 345.656 322.055C344.198 323.539 343 325.544 342.062 328.07C341.151 330.596 340.695 333.578 340.695 337.016C340.695 340.635 341.177 343.682 342.141 346.156C343.104 348.604 344.367 350.583 345.93 352.094C347.44 353.552 349.12 354.607 350.969 355.258C352.844 355.909 354.706 356.234 356.555 356.234C358.482 356.234 360.318 355.922 362.062 355.297C363.807 354.646 365.279 353.93 366.477 353.148C367.779 352.341 368.924 351.521 369.914 350.688C370.904 349.854 371.763 349.112 372.492 348.461H373.82V362.133C372.753 362.628 371.516 363.201 370.109 363.852C368.703 364.477 367.258 365.01 365.773 365.453C363.951 366 362.245 366.417 360.656 366.703C359.068 366.99 356.88 367.133 354.094 367.133ZM376.203 366L395.852 307.836H411.789L431.438 366H416.398L412.766 354.125H394.484L390.852 366H376.203ZM409.562 343.578L403.625 324.398L397.688 343.578H409.562ZM481.984 326.195C481.984 328.904 481.555 331.482 480.695 333.93C479.836 336.378 478.599 338.422 476.984 340.062C475.995 341.078 474.901 342.016 473.703 342.875C472.531 343.734 471.229 344.464 469.797 345.062C468.365 345.661 466.802 346.13 465.109 346.469C463.443 346.807 461.568 346.977 459.484 346.977H451.828V366H437.219V307.836H459.797C463.156 307.836 466.047 308.148 468.469 308.773C470.917 309.372 473.13 310.336 475.109 311.664C477.297 313.122 478.99 315.076 480.188 317.523C481.385 319.945 481.984 322.836 481.984 326.195ZM466.984 326.547C466.984 324.906 466.594 323.5 465.812 322.328C465.031 321.13 464.094 320.31 463 319.867C461.62 319.268 460.292 318.93 459.016 318.852C457.766 318.747 456.06 318.695 453.898 318.695H451.828V336.117H452.844C454.224 336.117 455.526 336.104 456.75 336.078C457.974 336.052 459.042 335.961 459.953 335.805C460.734 335.674 461.555 335.427 462.414 335.062C463.299 334.672 463.977 334.242 464.445 333.773C465.435 332.81 466.099 331.807 466.438 330.766C466.802 329.724 466.984 328.318 466.984 326.547ZM489.797 366V307.836H529.133V318.93H504.328V329.125H527.18V340.219H504.328V354.906H529.133V366H489.797Z" fill="#292929"/>
<g clip-path="url(#clip0_701_6331)">
<path d="M54.5664 -0.00101374C96.528 -0.650456 96.528 -0.650456 114.418 -0.791639C126.625 -0.88843 138.83 -1.00291 151.036 -1.22253C160.877 -1.3985 170.716 -1.49529 180.559 -1.53727C184.313 -1.56718 188.068 -1.6256 191.821 -1.71299C197.082 -1.83063 202.335 -1.84673 207.598 -1.83922C209.149 -1.89743 210.7 -1.95565 212.298 -2.01562C216.669 -1.94817 216.669 -1.94817 224.329 -0.00101374C228.737 4.93062 231.575 10.2566 234.434 16.191C235.92 18.7245 235.92 18.7245 237.436 21.3093C240.023 25.9233 242.602 30.5412 245.17 35.166C246.088 36.7966 247.007 38.4273 247.953 40.1074C248.819 41.665 249.685 43.2226 250.578 44.8274C251.36 46.2295 252.142 47.6315 252.948 49.076C254.643 52.623 254.643 52.623 254.643 56.671C215.962 56.671 177.28 56.671 137.427 56.671C137.427 89.3991 137.427 122.127 137.427 155.847C168.105 155.847 198.783 155.847 230.392 155.847C225.723 147.164 221.055 138.481 216.245 129.535C216.245 128.199 216.245 126.863 216.245 125.487C192.902 125.487 169.56 125.487 145.51 125.487C145.51 120.812 145.51 116.136 145.51 111.319C171.52 111.319 197.53 111.319 224.329 111.319C228.997 120.252 233.666 129.186 238.475 138.39C239.953 141.206 241.43 144.022 242.952 146.924C244.101 149.133 245.249 151.342 246.433 153.617C247.618 155.886 248.804 158.154 250.025 160.491C252.622 165.967 252.622 165.967 252.622 170.015C214.608 170.015 176.593 170.015 137.427 170.015C137.427 196.732 137.427 223.449 137.427 250.975C119.42 250.975 101.413 250.975 82.8601 250.975C82.8601 246.967 82.8601 242.96 82.8601 238.831C96.1986 238.831 109.537 238.831 123.28 238.831C123.28 215.454 123.28 192.077 123.28 167.991C105.273 167.991 87.2658 167.991 68.7133 167.991C68.7133 195.376 68.7133 222.76 68.7133 250.975C64.0448 250.975 59.3763 250.975 54.5664 250.975C54.5664 219.583 54.5664 188.19 54.5664 155.847C77.2418 155.847 99.9172 155.847 123.28 155.847C123.28 118.443 123.28 81.0399 123.28 42.503C158.627 41.8351 193.974 41.1671 230.392 40.479C225.723 31.796 221.055 23.1131 216.245 14.167C167.559 13.4991 118.874 12.8311 68.7133 12.143C68.7133 44.8711 68.7133 77.5991 68.7133 111.319C84.0525 111.319 99.3917 111.319 115.196 111.319C115.196 115.994 115.196 120.67 115.196 125.487C95.1881 125.487 75.1804 125.487 54.5664 125.487C54.5664 84.0759 54.5664 42.6649 54.5664 -0.00101374Z" fill="#292929"/>
<path d="M66.6924 165.969C86.0332 165.969 105.374 165.969 125.301 165.969C125.968 167.305 126.635 168.64 127.322 170.017C129.989 169.349 132.657 168.681 135.406 167.993C135.406 195.377 135.406 222.762 135.406 250.977C118.066 250.977 100.726 250.977 82.8602 250.977C82.8602 246.969 82.8602 242.962 82.8602 238.833C96.1987 238.833 109.537 238.833 123.28 238.833C123.28 215.456 123.28 192.078 123.28 167.993C104.606 167.993 85.9321 167.993 66.6924 167.993C66.6924 167.325 66.6924 166.657 66.6924 165.969Z" fill="#292929"/>
<path d="M145.51 111.32C171.52 111.32 197.53 111.32 224.328 111.32C217.04 116.187 211.522 116.068 203.084 116.206C200.877 116.265 200.877 116.265 198.625 116.325C193.93 116.446 189.236 116.54 184.54 116.633C181.355 116.711 178.17 116.79 174.984 116.87C167.181 117.065 159.377 117.235 151.573 117.392C151.573 118.06 151.573 118.728 151.573 119.416C183.586 120.418 183.586 120.418 216.245 121.44C216.245 123.444 216.245 125.448 216.245 127.512C192.902 126.844 169.56 126.176 145.51 125.488C145.51 120.813 145.51 116.137 145.51 111.32Z" fill="#292929"/>
<path d="M226.349 115.368C228.218 124.914 228.834 130.898 224.328 139.656C216.245 130.295 216.245 130.295 216.245 123.464C194.236 122.797 172.228 122.129 149.552 121.44C148.885 119.437 148.218 117.433 147.531 115.368C157.456 115.029 167.382 114.704 177.308 114.393C180.684 114.285 184.059 114.173 187.435 114.057C192.291 113.89 197.147 113.738 202.003 113.59C203.508 113.535 205.014 113.48 206.565 113.424C213.486 113.225 219.741 113.125 226.349 115.368Z" fill="#292929"/>
</g>
<defs>
<clipPath id="clip0_701_6331">
<rect width="289" height="253" fill="white"/>
</clipPath>
</defs>
</svg>
